# This file uses centimeters as units for non-parametric coordinates.

mtllib sss.mtl
g default
v 0.000000 113.699997 1.177963
v 0.000000 116.199997 1.177963
v 0.000000 113.699997 -98.822037
v 0.000000 116.199997 -98.822037
v 45.000000 113.699997 1.177963
v 45.000000 116.199997 1.177963
v 45.000000 113.699997 -98.822044
v 45.000000 116.199997 -98.822044
vt 0.501675 0.506044
vt 0.501675 0.669316
vt 0.497593 0.669316
vt 0.497593 0.506044
vt 0.496424 0.506044
vt 0.496424 0.669316
vt 0.492342 0.669316
vt 0.492343 0.506044
vt 0.415336 0.400481
vt 0.488808 0.400481
vt 0.488808 0.563753
vt 0.415336 0.563753
vt 0.489926 0.400481
vt 0.563398 0.400481
vt 0.563398 0.563753
vt 0.489926 0.563753
vt 0.491174 0.595843
vt 0.491174 0.669316
vt 0.487092 0.669316
vt 0.487092 0.595843
vt 0.485924 0.595843
vt 0.485924 0.669316
vt 0.481842 0.669316
vt 0.481842 0.595843
vn 0.000000 1.000000 0.000000
vn 0.000000 1.000000 0.000000
vn 0.000000 1.000000 0.000000
vn 0.000000 1.000000 0.000000
vn 0.000000 1.000000 0.000000
vn 0.000000 1.000000 0.000000
vn 0.000000 1.000000 0.000000
vn 0.000000 1.000000 0.000000
vn 0.000000 1.000000 0.000000
vn 0.000000 1.000000 0.000000
vn 0.000000 1.000000 0.000000
vn 0.000000 1.000000 0.000000
vn 0.000001 0.000000 1.000000
vn 0.000001 0.000000 1.000000
vn 0.000001 0.000000 1.000000
vn 0.000000 0.000000 1.000000
vn 0.000000 0.000000 1.000000
vn 0.000000 0.000000 1.000000
vn 1.000000 0.000000 0.000000
vn 1.000000 0.000000 0.000000
vn 1.000000 0.000000 0.000000
vn 1.000000 0.000000 0.000000
vn 1.000000 0.000000 0.000000
vn 1.000000 0.000000 0.000000
vn 0.000000 0.000000 1.000000
vn 0.000000 0.000000 1.000000
vn 0.000000 0.000000 1.000000
vn 0.000000 0.000000 1.000000
vn 0.000000 0.000000 1.000000
vn 0.000000 0.000000 1.000000
vn 1.000000 0.000000 0.000000
vn 1.000000 0.000000 0.000000
vn 1.000000 0.000000 0.000000
vn 1.000000 0.000000 0.000000
vn 1.000000 0.000000 0.000000
vn 1.000000 0.000000 0.000000
g top_mesh high_cabinet_front_extract_45x100x116
usemtl phong2SG
f 2/9/1 6/10/2 8/11/3
f 8/11/4 4/12/5 2/9/6
f 1/13/7 5/14/8 7/15/9
f 7/15/10 3/16/11 1/13/12
f 3/17/13 7/18/14 8/19/15
f 8/19/16 4/20/17 3/17/18
f 5/1/19 7/2/20 8/3/21
f 8/3/22 6/4/23 5/1/24
f 1/21/25 5/22/26 6/23/27
f 6/23/28 2/24/29 1/21/30
f 1/5/31 3/6/32 4/7/33
f 4/7/34 2/8/35 1/5/36
