# This file uses centimeters as units for non-parametric coordinates.

mtllib plastik.mtl
g default
v 4.000000 0.000000 59.000000
v 4.000000 0.000000 59.000000
v 4.000000 0.000000 59.000000
v 1.000000 0.000000 59.000000
v 1.000000 0.000000 59.000000
v 1.000000 0.000000 59.000000
v 4.000000 0.000000 56.000000
v 4.000000 0.000000 56.000000
v 1.000000 0.000000 56.000000
v 4.000000 1.000000 59.000000
v 4.000000 1.000000 59.000000
v 4.000000 1.000000 59.000000
v 1.000000 1.000000 59.000000
v 1.000000 1.000000 59.000000
v 1.000000 1.000000 59.000000
v 4.000000 1.000000 56.000000
v 4.000000 1.000000 56.000000
v 4.000000 1.000000 56.000000
v 1.000000 1.000000 56.000000
v 1.000000 1.000000 56.000000
v 1.000000 0.000000 56.000000
v 1.000000 0.000000 56.000000
v 1.000000 0.000000 56.000000
v 1.000000 0.000000 56.000000
v 1.000000 0.000000 56.000000
v 1.000000 0.000000 56.000000
v 1.000000 0.000000 56.000000
v 1.000000 0.000000 56.000000
v 1.000000 0.000000 56.000000
v 1.000000 0.000000 56.000000
v 1.000000 0.000000 56.000000
v 1.000000 0.000000 56.000000
v 1.000000 0.000000 56.000000
v 1.000000 0.000000 56.000000
v 1.000000 0.000000 56.000000
v 1.000000 0.000000 56.000000
v 4.000000 0.000000 4.000000
v 4.000000 0.000000 4.000000
v 4.000000 0.000000 4.000000
v 1.000000 0.000000 4.000000
v 1.000000 0.000000 4.000000
v 1.000000 0.000000 4.000000
v 4.000000 0.000000 1.000000
v 4.000000 0.000000 1.000000
v 1.000000 0.000000 1.000000
v 4.000000 1.000000 4.000000
v 4.000000 1.000000 4.000000
v 4.000000 1.000000 4.000000
v 1.000000 1.000000 4.000000
v 1.000000 1.000000 4.000000
v 1.000000 1.000000 4.000000
v 4.000000 1.000000 1.000000
v 4.000000 1.000000 1.000000
v 4.000000 1.000000 1.000000
v 1.000000 1.000000 1.000000
v 1.000000 1.000000 1.000000
v 1.000000 0.000000 1.000000
v 1.000000 0.000000 1.000000
v 1.000000 0.000000 1.000000
v 1.000000 0.000000 1.000000
v 1.000000 0.000000 1.000000
v 1.000000 0.000000 1.000000
v 1.000000 0.000000 1.000000
v 1.000000 0.000000 1.000000
v 1.000000 0.000000 1.000000
v 1.000000 0.000000 1.000000
v 1.000000 0.000000 1.000000
v 1.000000 0.000000 1.000000
v 1.000000 0.000000 1.000000
v 1.000000 0.000000 1.000000
v 1.000000 0.000000 1.000000
v 1.000000 0.000000 1.000000
v 119.000000 0.000000 59.000000
v 119.000000 0.000000 59.000000
v 119.000000 0.000000 59.000000
v 116.000000 0.000000 59.000000
v 116.000000 0.000000 59.000000
v 116.000000 0.000000 59.000000
v 119.000000 0.000000 56.000000
v 119.000000 0.000000 56.000000
v 116.000000 0.000000 56.000000
v 119.000000 1.000000 59.000000
v 119.000000 1.000000 59.000000
v 119.000000 1.000000 59.000000
v 116.000000 1.000000 59.000000
v 116.000000 1.000000 59.000000
v 116.000000 1.000000 59.000000
v 119.000000 1.000000 56.000000
v 119.000000 1.000000 56.000000
v 119.000000 1.000000 56.000000
v 116.000000 1.000000 56.000000
v 116.000000 1.000000 56.000000
v 116.000000 0.000000 56.000000
v 116.000000 0.000000 56.000000
v 116.000000 0.000000 56.000000
v 116.000000 0.000000 56.000000
v 116.000000 0.000000 56.000000
v 116.000000 0.000000 56.000000
v 116.000000 0.000000 56.000000
v 116.000000 0.000000 56.000000
v 116.000000 0.000000 56.000000
v 116.000000 0.000000 56.000000
v 116.000000 0.000000 56.000000
v 116.000000 0.000000 56.000000
v 116.000000 0.000000 56.000000
v 116.000000 0.000000 56.000000
v 116.000000 0.000000 56.000000
v 116.000000 0.000000 56.000000
v 119.000000 0.000000 4.000000
v 119.000000 0.000000 4.000000
v 119.000000 0.000000 4.000000
v 116.000000 0.000000 4.000000
v 116.000000 0.000000 4.000000
v 116.000000 0.000000 4.000000
v 119.000000 0.000000 1.000000
v 119.000000 0.000000 1.000000
v 116.000000 0.000000 1.000000
v 119.000000 1.000000 4.000000
v 119.000000 1.000000 4.000000
v 119.000000 1.000000 4.000000
v 116.000000 1.000000 4.000000
v 116.000000 1.000000 4.000000
v 116.000000 1.000000 4.000000
v 119.000000 1.000000 1.000000
v 119.000000 1.000000 1.000000
v 119.000000 1.000000 1.000000
v 116.000000 1.000000 1.000000
v 116.000000 1.000000 1.000000
v 116.000000 0.000000 1.000000
v 116.000000 0.000000 1.000000
v 116.000000 0.000000 1.000000
v 116.000000 0.000000 1.000000
v 116.000000 0.000000 1.000000
v 116.000000 0.000000 1.000000
v 116.000000 0.000000 1.000000
v 116.000000 0.000000 1.000000
v 116.000000 0.000000 1.000000
v 116.000000 0.000000 1.000000
v 116.000000 0.000000 1.000000
v 116.000000 0.000000 1.000000
v 116.000000 0.000000 1.000000
v 116.000000 0.000000 1.000000
v 116.000000 0.000000 1.000000
v 116.000000 0.000000 1.000000
vt -0.600000 0.600000
vt 0.000000 -0.600000
vt 0.000000 0.600000
vt -0.600000 0.000000
vt 0.000000 -0.600000
vt 0.000000 0.000000
vt 0.000000 0.000000
vt 0.000000 0.600000
vt 0.000000 0.000000
vt -0.600000 0.600000
vt 0.200000 -0.600000
vt 0.200000 0.600000
vt -0.600000 0.000000
vt 0.200000 -0.600000
vt 0.200000 0.000000
vt 0.000000 0.600000
vt 0.200000 0.000000
vt 0.200000 0.600000
vt 0.000000 0.000000
vt 0.200000 0.000000
vt -0.600000 0.000000
vt -0.600000 0.600000
vt 0.000000 0.000000
vt 0.000000 0.600000
vt 0.000000 0.000000
vt 0.000000 0.600000
vt 0.200000 0.000000
vt 0.200000 0.600000
vt 0.000000 0.000000
vt 0.000000 0.600000
vt -0.600000 0.000000
vt -0.600000 0.600000
vt 0.200000 0.000000
vt 0.200000 0.600000
vt 0.000000 0.000000
vt 0.200000 0.000000
vt 0.000000 -0.600000
vt 0.200000 -0.600000
vt 0.200000 -0.600000
vt 0.000000 -0.600000
vt -0.600000 0.000000
vt -0.600000 0.600000
vt 0.000000 0.000000
vt 0.000000 0.600000
vt 0.000000 0.000000
vt 0.000000 0.600000
vt 0.200000 0.000000
vt 0.200000 0.600000
vt 0.000000 0.000000
vt 0.000000 0.600000
vt -0.600000 0.000000
vt -0.600000 0.600000
vt 0.200000 0.000000
vt 0.200000 0.600000
vt 0.000000 0.000000
vt 0.200000 0.000000
vt 0.000000 -0.600000
vt 0.200000 -0.600000
vt 0.200000 -0.600000
vt 0.000000 -0.600000
vt -0.600000 0.000000
vt -0.600000 0.600000
vt 0.000000 0.000000
vt 0.000000 0.600000
vt 0.000000 0.000000
vt 0.000000 0.600000
vt 0.200000 0.000000
vt 0.200000 0.600000
vt 0.000000 0.000000
vt 0.000000 0.600000
vt -0.600000 0.000000
vt -0.600000 0.600000
vt 0.200000 0.000000
vt 0.200000 0.600000
vt 0.000000 0.000000
vt 0.200000 0.000000
vt 0.000000 -0.600000
vt 0.200000 -0.600000
vt 0.200000 -0.600000
vt 0.000000 -0.600000
vn -0.000000 1.000000 0.000000
vn -0.000000 1.000000 0.000000
vn -0.000000 1.000000 0.000000
vn -0.000000 1.000000 0.000000
vn 0.000000 0.000000 1.000000
vn 0.000000 0.000000 1.000000
vn 0.000000 0.000000 1.000000
vn 0.000000 0.000000 1.000000
vn -0.485071 -0.727607 -0.485071
vn 0.000000 -0.986394 -0.164399
vn 0.000000 -1.000000 0.000000
vn 0.000000 -1.000000 0.000000
vn -0.707107 -0.000000 -0.707107
vn -0.000000 0.000000 -1.000000
vn 1.000000 0.000000 0.000000
vn 1.000000 0.000000 0.000000
vn 1.000000 0.000000 0.000000
vn 1.000000 0.000000 0.000000
vn -1.000000 -0.000000 0.000000
vn -1.000000 -0.000000 0.000000
vn -0.000000 1.000000 0.000000
vn -0.000000 1.000000 0.000000
vn -0.000000 1.000000 0.000000
vn -0.000000 1.000000 0.000000
vn 0.000000 0.000000 1.000000
vn 0.000000 0.000000 1.000000
vn 0.000000 0.000000 1.000000
vn 0.000000 0.000000 1.000000
vn -0.485071 -0.727607 -0.485071
vn 0.000000 -0.986394 -0.164399
vn 0.000000 -1.000000 0.000000
vn 0.000000 -1.000000 0.000000
vn -0.707107 -0.000000 -0.707107
vn -0.000000 0.000000 -1.000000
vn 1.000000 0.000000 0.000000
vn 1.000000 0.000000 0.000000
vn 1.000000 0.000000 0.000000
vn 1.000000 0.000000 0.000000
vn -1.000000 -0.000000 0.000000
vn -1.000000 -0.000000 0.000000
vn -0.000000 1.000000 0.000000
vn -0.000000 1.000000 0.000000
vn -0.000000 1.000000 0.000000
vn -0.000000 1.000000 0.000000
vn 0.000000 0.000000 1.000000
vn 0.000000 0.000000 1.000000
vn 0.000000 0.000000 1.000000
vn 0.000000 0.000000 1.000000
vn -0.485071 -0.727607 -0.485071
vn 0.000000 -0.986394 -0.164399
vn 0.000000 -1.000000 0.000000
vn 0.000000 -1.000000 0.000000
vn -0.707107 -0.000000 -0.707107
vn -0.000000 0.000000 -1.000000
vn 1.000000 0.000000 0.000000
vn 1.000000 0.000000 0.000000
vn 1.000000 0.000000 0.000000
vn 1.000000 0.000000 0.000000
vn -1.000000 -0.000000 0.000000
vn -1.000000 -0.000000 0.000000
vn -0.000000 1.000000 0.000000
vn -0.000000 1.000000 0.000000
vn -0.000000 1.000000 0.000000
vn -0.000000 1.000000 0.000000
vn 0.000000 0.000000 1.000000
vn 0.000000 0.000000 1.000000
vn 0.000000 0.000000 1.000000
vn 0.000000 0.000000 1.000000
vn -0.485071 -0.727607 -0.485071
vn 0.000000 -0.986394 -0.164399
vn 0.000000 -1.000000 0.000000
vn 0.000000 -1.000000 0.000000
vn -0.707107 -0.000000 -0.707107
vn -0.000000 0.000000 -1.000000
vn 1.000000 0.000000 0.000000
vn 1.000000 0.000000 0.000000
vn 1.000000 0.000000 0.000000
vn 1.000000 0.000000 0.000000
vn -1.000000 -0.000000 0.000000
vn -1.000000 -0.000000 0.000000
g plastik_mesh
usemtl M30FBXASC046I45SG
f 13/13/1 10/10/2 19/19/3
f 19/19/3 10/10/2 16/16/4
f 6/6/5 3/3/6 15/15/7
f 15/15/7 3/3/6 12/12/8
f 9/9/9 8/8/10 4/4/11
f 4/4/11 8/8/10 1/1/12
f 20/20/13 18/18/14 9/9/9
f 9/9/9 18/18/14 8/8/10
f 7/7/15 17/17/16 2/2/17
f 2/2/17 17/17/16 11/11/18
f 20/20/13 9/9/9 14/14/19
f 14/14/19 9/9/9 5/5/20
f 49/21/21 46/22/22 55/23/23
f 55/23/23 46/22/22 52/24/24
f 42/25/25 39/26/26 51/27/27
f 51/27/27 39/26/26 48/28/28
f 45/29/29 44/30/30 40/31/31
f 40/31/31 44/30/30 37/32/32
f 56/33/33 54/34/34 45/29/29
f 45/29/29 54/34/34 44/30/30
f 43/35/35 53/36/36 38/37/37
f 38/37/37 53/36/36 47/38/38
f 56/33/33 45/29/29 50/39/39
f 50/39/39 45/29/29 41/40/40
f 85/41/41 82/42/42 91/43/43
f 91/43/43 82/42/42 88/44/44
f 78/45/45 75/46/46 87/47/47
f 87/47/47 75/46/46 84/48/48
f 81/49/49 80/50/50 76/51/51
f 76/51/51 80/50/50 73/52/52
f 92/53/53 90/54/54 81/49/49
f 81/49/49 90/54/54 80/50/50
f 79/55/55 89/56/56 74/57/57
f 74/57/57 89/56/56 83/58/58
f 92/53/53 81/49/49 86/59/59
f 86/59/59 81/49/49 77/60/60
f 121/61/61 118/62/62 127/63/63
f 127/63/63 118/62/62 124/64/64
f 114/65/65 111/66/66 123/67/67
f 123/67/67 111/66/66 120/68/68
f 117/69/69 116/70/70 112/71/71
f 112/71/71 116/70/70 109/72/72
f 128/73/73 126/74/74 117/69/69
f 117/69/69 126/74/74 116/70/70
f 115/75/75 125/76/76 110/77/77
f 110/77/77 125/76/76 119/78/78
f 128/73/73 117/69/69 122/79/79
f 122/79/79 117/69/69 113/80/80
